<svg width="50" height="38" viewBox="0 0 50 38" fill="none" xmlns="http://www.w3.org/2000/svg">
<path d="M2.48152 32.0321V33.471H5.25409V35.1124H2.48152V37.8514H0.775391V30.3916H5.30743V32.0326H2.48152V32.0321Z" fill="white"/>
<path d="M11.3122 32.5225V37.8512H9.71275V37.3504C9.42496 37.7446 8.89151 38.0004 8.18773 38.0004C7.11053 38.0004 6.19336 37.233 6.19336 35.7945V32.5229H7.7928V35.5602C7.7928 36.221 8.20879 36.5301 8.72072 36.5301C9.30706 36.5301 9.7123 36.1892 9.7123 35.4325V32.5234H11.3117L11.3122 32.5225Z" fill="white"/>
<path d="M14.5115 34.0573V35.9437C14.5115 36.402 14.906 36.4446 15.6098 36.402V37.8512C13.5195 38.0645 12.9117 37.4355 12.9117 35.9437V34.0573H12.0586V32.5225H12.9117V31.5101L14.5111 31.0303V32.5221H15.6094V34.0568H14.5111L14.5115 34.0573Z" fill="white"/>
<path d="M21.6657 32.5225V37.8512H20.0663V37.3504C19.7785 37.7446 19.245 38.0004 18.5412 38.0004C17.464 38.0004 16.5469 37.233 16.5469 35.7945V32.5229H18.1463V35.5602C18.1463 36.221 18.5623 36.5301 19.0742 36.5301C19.6606 36.5301 20.0658 36.1892 20.0658 35.4325V32.5234H21.6653L21.6657 32.5225Z" fill="white"/>
<path d="M26.0387 32.4165V34.2281C25.3775 34.1215 24.4393 34.388 24.4393 35.443V37.8514H22.8398V32.5226H24.4393V33.471C24.6527 32.7569 25.3672 32.416 26.0387 32.416V32.4165Z" fill="white"/>
<path d="M29.3326 36.573C29.7697 36.573 30.1431 36.4023 30.3565 36.168L31.6363 36.9031C31.1136 37.6279 30.3246 38.0007 29.3115 38.0007C27.488 38.0007 26.3574 36.775 26.3574 35.1873C26.3574 33.5997 27.509 32.374 29.1941 32.374C30.7509 32.374 31.9026 33.5782 31.9026 35.1873C31.9026 35.4113 31.881 35.6241 31.8385 35.8266H28.0528C28.2554 36.3808 28.7458 36.5725 29.3326 36.5725V36.573ZM30.3139 34.6332C30.1431 34.015 29.6634 33.7914 29.1833 33.7914C28.5755 33.7914 28.1702 34.0898 28.021 34.6332H30.3139Z" fill="white"/>
<path d="M37.927 34.5788V37.8504H36.3275V34.8131C36.3275 34.1523 35.9115 33.8432 35.3996 33.8432C34.8133 33.8432 34.408 34.1842 34.408 34.9408V37.85H32.8086V32.5212H34.408V33.0221C34.6958 32.6279 35.2293 32.3721 35.9331 32.3721C37.0103 32.3721 37.9274 33.1395 37.9274 34.5779L37.927 34.5788Z" fill="white"/>
<path d="M43.1633 36.2526C43.1633 37.4783 42.0969 38.0002 40.9453 38.0002C39.8788 38.0002 39.0683 37.5952 38.6523 36.732L40.0389 35.9435C40.1774 36.3485 40.4759 36.5725 40.9453 36.5725C41.329 36.5725 41.5213 36.4551 41.5213 36.2423C41.5213 35.6564 38.898 35.9655 38.898 34.1216C38.898 32.96 39.8793 32.374 40.9883 32.374C41.8521 32.374 42.62 32.7575 43.0678 33.5141L41.7028 34.2493C41.5536 33.9724 41.3402 33.7802 40.9883 33.7802C40.7108 33.7802 40.5405 33.8869 40.5405 34.0786C40.5405 34.6861 43.1638 34.2811 43.1638 36.2526H43.1633Z" fill="white"/>
<path d="M46.6197 36.573C47.0568 36.573 47.4302 36.4023 47.6436 36.168L48.9234 36.9031C48.4007 37.6279 47.6117 38.0007 46.5987 38.0007C44.7751 38.0007 43.6445 36.775 43.6445 35.1873C43.6445 33.5997 44.7961 32.374 46.4812 32.374C48.0381 32.374 49.1897 33.5782 49.1897 35.1873C49.1897 35.4113 49.1681 35.6241 49.1256 35.8266H45.3399C45.5425 36.3808 46.0329 36.5725 46.6197 36.5725V36.573ZM47.601 34.6332C47.4302 34.015 46.9505 33.7914 46.4704 33.7914C45.8626 33.7914 45.4573 34.0898 45.3081 34.6332H47.601Z" fill="white"/>
<path d="M25.6855 24.3498V17.9065C26.5153 17.6157 27.1128 16.8251 27.1128 15.8968C27.1128 14.7227 26.1571 13.7676 24.9822 13.7676C23.8073 13.7676 22.8516 14.7227 22.8516 15.8968C22.8516 16.8251 23.4487 17.6166 24.2793 17.9065H24.2802V24.3498H24.2793C23.4487 24.6396 22.8516 25.4312 22.8516 26.3594C22.8516 27.5327 23.8073 28.4878 24.9822 28.4878C26.1571 28.4878 27.1128 27.5327 27.1128 26.3594C27.1128 25.4312 26.5157 24.6405 25.6855 24.3498ZM24.2569 15.8968C24.2569 15.4972 24.5823 15.172 24.9822 15.172C25.3821 15.172 25.7075 15.4972 25.7075 15.8968C25.7075 16.2964 25.3821 16.6217 24.9822 16.6217C24.5823 16.6217 24.2569 16.2964 24.2569 15.8968ZM24.9822 27.0838C24.5823 27.0838 24.2569 26.7586 24.2569 26.3599C24.2569 25.9612 24.5823 25.6351 24.9822 25.6351C25.3821 25.6351 25.7075 25.9603 25.7075 26.3599C25.7075 26.7595 25.3821 27.0838 24.9822 27.0838Z" fill="white"/>
<path d="M31.871 20.0924V12.0919C31.871 9.89098 30.276 8.05605 28.1812 7.67974C28.9908 6.86531 29.492 5.74312 29.492 4.50624C29.492 2.02174 27.4689 0 24.9819 0C22.4949 0 20.4727 2.02174 20.4727 4.50624C20.4727 5.74312 20.9739 6.86531 21.7835 7.67974C19.6887 8.05605 18.0938 9.89098 18.0938 12.0919V20.0924C17.2631 20.3823 16.666 21.1738 16.666 22.1016C16.666 23.2758 17.6217 24.2309 18.7967 24.2309C19.9716 24.2309 20.9264 23.2758 20.9264 22.1016C20.9264 21.1738 20.3293 20.3832 19.4991 20.0924V12.0919C19.4991 10.3941 20.8811 9.01339 22.5796 9.01339H27.3856C29.0841 9.01339 30.4661 10.3941 30.4661 12.0919V20.0924C29.6354 20.3823 29.0383 21.1738 29.0383 22.1016C29.0383 23.2758 29.9941 24.2309 31.169 24.2309C32.3439 24.2309 33.2987 23.2758 33.2987 22.1016C33.2987 21.1738 32.7016 20.3832 31.8714 20.0924H31.871ZM19.5202 22.1016C19.5202 22.5012 19.1947 22.8264 18.7958 22.8264C18.3968 22.8264 18.0705 22.5012 18.0705 22.1016C18.0705 21.702 18.3959 21.3777 18.7958 21.3777C19.1956 21.3777 19.5202 21.702 19.5202 22.1016ZM24.9815 7.60852C23.2695 7.60852 21.8776 6.21664 21.8776 4.5058C21.8776 2.79496 23.2695 1.40397 24.9815 1.40397C26.6934 1.40397 28.0862 2.79496 28.0862 4.5058C28.0862 6.21664 26.6934 7.60852 24.9815 7.60852ZM31.1681 22.8264C30.7682 22.8264 30.4428 22.5012 30.4428 22.1016C30.4428 21.702 30.7682 21.3777 31.1681 21.3777C31.568 21.3777 31.8925 21.702 31.8925 22.1016C31.8925 22.5012 31.5671 22.8264 31.1681 22.8264Z" fill="white"/>
</svg>
